<?xml version="1.0" encoding="utf-8"?>
<!DOCTYPE svg PUBLIC "-//W3C//DTD SVG 1.0//EN" "http://www.w3.org/TR/2001/REC-SVG-20010904/DTD/svg10.dtd">
<svg version="1.0" xmlns="http://www.w3.org/2000/svg" width="570px" height="433px" viewBox="0 0 570 433" preserveAspectRatio="xMidYMid meet">
 <g fill="#000000">
  <path d="M0 216.5 l0 -216.5 285 0 285 0 0 216.5 0 216.5 -285 0 -285 0 0 -216.5z m108 120 l0 -13.5 3.8 -4.2 c4.8 -5.5 5.1 -5.8 8.7 -5.8 2.7 0 4.5 2 17.8 18.5 l14.9 18.5 5 0 c4.6 0 4.9 -0.1 3.7 -1.7 -0.8 -0.9 -8.7 -10.2 -17.6 -20.7 -14.5 -17 -16.3 -19.5 -16.2 -22.6 0 -3 2.4 -6.4 17.3 -24.5 l17.4 -21 -4.6 -0.3 c-3.6 -0.3 -4.9 0.1 -6 1.5 -0.7 1 -9.4 11.8 -19.3 24.1 -17.2 21.2 -18.2 22.2 -21.5 22.2 l-3.4 0 0 -24 0 -24 -5 0 -5 0 0 45.5 0 45.5 5 0 5 0 0 -13.5z m82.4 7.7 l1.9 -5.2 20.6 0.2 20.6 0.3 1.9 5.3 1.9 5.2 4.4 0 c3.2 0 4.4 -0.4 4 -1.2 -1 -2.6 -11.7 -30 -21.6 -55.8 -5.7 -14.6 -10.6 -26.8 -11 -27.3 -0.4 -0.4 -6.1 13.1 -12.6 30 -6.5 17 -14 36.1 -16.6 42.6 l-4.7 11.8 4.6 -0.3 c4.7 -0.3 4.7 -0.3 6.6 -5.6z m119.6 2.6 c12.4 -5.8 18.3 -16.5 14.6 -26.3 -2.1 -5.3 -7.1 -10 -12.6 -11.6 -3.6 -1.1 -4 -1.5 -4 -4.6 0 -2.5 0.4 -3.3 1.8 -3.3 3 -0.1 9.6 -5.4 12 -9.8 5.1 -9.1 1.2 -21.1 -8.8 -26.9 -7.1 -4.2 -13.4 -5.3 -30.7 -5.3 l-16.3 0 0 45.6 0 45.6 19.3 -0.4 c18.1 -0.4 19.5 -0.5 24.7 -3z m51 -42.3 l0 -45.5 -5 0 -5 0 0 45.5 0 45.5 5 0 5 0 0 -45.5z m38 25 l0 -20.5 9.9 0 9.9 0 9.3 20.5 9.4 20.5 4.3 0 c2.3 0 4.2 -0.2 4.2 -0.5 0 -0.2 -3.6 -8.2 -8 -17.7 -9.4 -20.3 -10.1 -24.4 -4.7 -27 8.9 -4.3 14.1 -11.9 14.1 -20.8 0 -9.7 -5.1 -16.7 -15.9 -21.7 -5.8 -2.7 -6.7 -2.8 -24.2 -3.1 l-18.3 -0.4 0 45.6 0 45.6 5 0 5 0 0 -20.5z m76.6 15 l1.8 -5.5 20.5 0.2 20.4 0.3 2 5.3 c2 5.2 2 5.2 6.3 5.2 2.4 0 4.4 -0.3 4.4 -0.6 0 -0.6 -13.6 -35.5 -26.8 -68.7 -3.6 -9.3 -6.8 -16.3 -7.1 -15.5 -0.2 0.7 -7.7 20.1 -16.6 43.1 l-16.2 41.7 4.7 0 4.7 0 1.9 -5.5z m-150.4 -115.5 c20.6 -3 41.1 -15.3 53.9 -32.3 6.6 -8.8 10.6 -16.6 14.1 -28 3.2 -10.1 3.1 -26.9 0 -38.1 -8.2 -28.9 -30.9 -51.1 -60.2 -58.8 -28.6 -7.5 -63.1 6 -81.6 31.9 -7.8 10.9 -15.4 30.2 -15.4 39.2 0 5.5 29.8 9.2 44.1 5.5 l7.4 -1.9 -13 -0.6 c-7.1 -0.3 -14.3 -1.1 -15.9 -1.8 l-2.9 -1.2 0.7 -7.4 c2.1 -23.5 17.2 -43.2 40.3 -52.7 7.3 -3 8.8 -3.3 21.8 -3.6 15 -0.4 23.3 0.9 32.3 4.9 6 2.7 19.2 12.7 19.2 14.5 0 0.8 0.5 1.4 1 1.4 3.3 0 12.7 16.8 15.1 27 0.9 3.3 1.4 10.8 1.3 19 -0.1 12.6 -0.3 14.1 -3.2 21.9 -3.9 10.5 -7.7 16.3 -15 23.4 -7.3 7.2 -9.5 8.8 -16 12.1 -8.1 4.1 -19.2 6.6 -29.4 6.6 l-8.8 0 0 -3.2 c0.1 -2.4 1.2 -4.5 4.1 -7.8 4.8 -5.4 18.4 -23.3 20.1 -26.3 0.6 -1.2 -3.2 1.9 -8.5 7 -17.8 16.9 -34.1 26.2 -59.7 34 -1.7 0.5 1.8 3 10 7.2 7 3.6 14.3 6 23.3 7.6 9 1.6 12.4 1.7 20.9 0.5z m-44.7 -31.7 c26.4 -13.5 53.2 -35.9 67.7 -56.8 l4.2 -6 -9.4 8.8 c-15.7 14.7 -34.6 26.4 -53.6 33.3 -11.5 4.1 -18.9 5.5 -33.7 6.3 l-11.8 0.6 3.8 6.3 c2.2 3.5 6 8.8 8.6 11.8 l4.8 5.4 6.2 -3.1 c3.4 -1.6 9.4 -4.6 13.2 -6.6z m-27.5 -24.3 c14.8 -2.1 30.3 -6.9 42.2 -13.3 4.2 -2.3 7.6 -4.3 7.4 -4.4 -0.2 -0.2 -2.3 0.4 -4.7 1.3 -8 2.9 -11.3 3.5 -26 4.4 -18.6 1.1 -29.8 0.1 -32.8 -2.9 -1.3 -1.3 -2.4 -2.1 -2.6 -1.9 -0.6 0.6 2.5 16.1 3.5 17.3 0.6 0.7 1.8 1.1 2.8 1 0.9 -0.2 5.5 -0.9 10.2 -1.5z"/>
  <path d="M198 327.2 c0 -2 2.5 -10.6 5.5 -19.1 3 -8.5 5.5 -15.6 5.5 -15.8 0 -0.2 1.7 -0.3 3.7 -0.1 l3.7 0.3 5.3 14.9 c3.3 9.3 5.3 16.6 5.3 19.3 l0 4.3 -14.5 0 -14.5 0 0 -3.8z"/>
  <path d="M276 324.4 l0 -15.6 14.8 0.4 c12.7 0.4 15.3 0.7 19 2.7 5.1 2.6 6.2 5 6.2 13.6 0 5.4 -0.4 6.8 -2.6 9.4 -3.5 4.2 -7.7 5.1 -23.6 5.1 l-13.8 0 0 -15.6z"/>
  <path d="M276 284 l0 -15 14.8 0 c12.8 0 15.1 0.3 17.9 2 4.9 3 6.6 7.2 6 14.7 -0.9 11.3 -4.5 13.3 -24.7 13.3 l-14 0 0 -15z"/>
  <path d="M399 284 l0 -15 13.9 0 c15.3 0 19.4 1 23 5.6 1.6 2.1 2.1 4.1 2.1 8.8 0 7.3 -1.4 10.3 -5.9 13.3 -3.2 2.1 -4.4 2.3 -18.2 2.3 l-14.9 0 0 -15z"/>
  <path d="M483 327.8 c0 -1.8 2.5 -10.6 5.7 -19.6 l5.6 -16.3 3.6 0.3 3.6 0.3 5.7 16 c3.2 8.8 5.8 17.5 5.8 19.3 l0 3.2 -15 0 -15 0 0 -3.2z"/>
 </g>
 <g fill="#ffffff">
  <path d="M358.5 391.6 c-3.7 -1.6 -5.5 -5.2 -5.5 -11.1 0 -6.3 3.3 -10 9 -10 5.7 0 9 3.7 9 10.1 0 5.9 -2.2 9.9 -6.1 11.3 -1.8 0.6 -3.2 1.1 -3.3 1.1 -0.1 -0.1 -1.5 -0.7 -3.1 -1.4z m7.9 -3.8 c1.7 -2.3 2.1 -10.4 0.8 -12.5 -1.3 -2.1 -5.5 -3.1 -8 -2 -2.5 1.2 -4.7 7.6 -3.6 11 1.7 5.8 7.9 7.7 10.8 3.5z"/>
  <path d="M203.2 382.3 c0.2 -6.6 0.7 -9.8 1.6 -10.1 0.9 -0.3 1.2 2.1 1.2 9.7 0 8.4 -0.3 10.1 -1.5 10.1 -1.3 0 -1.5 -1.5 -1.3 -9.7z"/>
  <path d="M212 381.4 c0 -9.4 0.2 -10.5 1.7 -10.2 0.9 0.2 3.7 3.8 6.2 8.1 l4.6 7.9 0.3 -7.6 c0.2 -5.9 0.6 -7.6 1.8 -7.6 1.2 0 1.4 1.6 1.2 9.7 -0.4 12.8 -1.7 13.1 -7.8 2.3 -2.5 -4.4 -4.8 -8 -5.1 -8 -0.3 0 -0.4 3.6 -0.1 8 0.4 6.9 0.2 8 -1.2 8 -1.4 0 -1.6 -1.5 -1.6 -10.6z"/>
  <path d="M238 382.5 c0 -9.4 0 -9.5 -2.4 -9.5 -1.4 0 -2.8 -0.4 -3.1 -1 -0.4 -0.6 2.3 -1 7.5 -1 5.2 0 7.9 0.4 7.5 1 -0.3 0.6 -1.9 1 -3.6 1 l-2.9 0 0 9.5 c0 7.8 -0.3 9.5 -1.5 9.5 -1.2 0 -1.5 -1.7 -1.5 -9.5z"/>
  <path d="M252 381.6 l0 -10.4 4.3 -0.3 c5.2 -0.5 7.7 -0.1 7.7 1.2 0 0.5 -2.3 0.9 -5.1 0.9 l-5 0 0.3 3.3 c0.3 3 0.6 3.2 4.6 3.5 5.6 0.4 5.4 2.2 -0.3 2.2 l-4.5 0 0 4 0 4 5 0 c2.8 0 5 0.5 5 1 0 0.6 -2.7 1 -6 1 l-6 0 0 -10.4z"/>
  <path d="M269 381.5 l0 -10.5 6 0 c5.2 0 6.2 0.3 7.6 2.5 1.8 2.7 1.3 5.4 -1.6 8 -1.9 1.7 -1.9 1.8 0.6 6.1 2 3.4 2.3 4.4 1.1 4.4 -0.8 0 -2.7 -2 -4.1 -4.5 -1.7 -2.9 -3.4 -4.5 -4.6 -4.5 -1.7 0 -2 0.7 -2 4.5 0 3.3 -0.4 4.5 -1.5 4.5 -1.2 0 -1.5 -1.8 -1.5 -10.5z m10.1 -1.5 c2.9 -1.6 2.5 -5.8 -0.7 -7 -5.3 -2 -6.4 -1.4 -6.4 3.5 0 4.2 0.2 4.5 2.6 4.5 1.4 0 3.4 -0.5 4.5 -1z"/>
  <path d="M289 381.5 c0 -8.2 0.3 -10.5 1.4 -10.5 0.7 0 3.5 3.7 6.2 8.3 l4.9 8.2 0.3 -8.2 c0.4 -12.1 2.2 -10.3 2.2 2.2 0 13.3 -1.1 13.6 -7.7 1.9 l-4.8 -8.7 -0.3 8.7 c-0.4 12.3 -2.2 10.8 -2.2 -1.9z"/>
  <path d="M308 391.3 c0 -2.7 6.5 -19.6 7.7 -20 2 -0.8 2.7 0.6 5.9 10.2 1.5 4.4 2.9 8.6 3.2 9.3 0.2 0.6 -0.3 1.2 -1.1 1.2 -0.9 0 -1.8 -1.3 -2.2 -3 -0.6 -2.8 -1 -3 -5 -3 -3.9 0 -4.4 0.3 -5.4 3 -0.9 2.7 -3.1 4.2 -3.1 2.3z m10.9 -9 c-0.1 -3.2 -2.6 -8.9 -3.2 -7.3 -2.9 8.4 -2.9 9 1 9 1.6 0 2.3 -0.6 2.2 -1.7z"/>
  <path d="M332 382.5 c0 -10.2 0.1 -10 -5.7 -9.8 -0.7 0.1 -1 -0.3 -0.7 -0.8 0.7 -1.2 15.4 -1.2 15.4 0 0 0.6 -1.5 1.1 -3.2 1.3 l-3.3 0.3 -0.3 9.3 c-0.4 12.2 -2.2 12 -2.2 -0.3z"/>
  <path d="M345 381.5 c0 -8.7 0.3 -10.5 1.5 -10.5 1.2 0 1.5 1.8 1.5 10.5 0 8.7 -0.3 10.5 -1.5 10.5 -1.2 0 -1.5 -1.8 -1.5 -10.5z"/>
  <path d="M376 381.4 c0 -9.5 0.2 -10.5 1.7 -10.2 1 0.2 3.8 3.9 6.3 8.3 l4.5 8 0.3 -7.7 c0.2 -6 0.6 -7.8 1.7 -7.8 1.2 0 1.5 1.9 1.5 10 0 13.2 -1.5 13.4 -8.3 1.5 -2.7 -4.7 -5 -8.5 -5.2 -8.5 -0.1 0 0 3.8 0.3 8.5 0.4 7.4 0.3 8.5 -1.2 8.5 -1.4 0 -1.6 -1.4 -1.6 -10.6z"/>
  <path d="M396 389.3 c0.4 -1.6 1.9 -6.1 3.4 -10.2 1.4 -4.1 2.6 -7.6 2.6 -7.8 0 -0.2 0.8 -0.3 1.8 -0.3 1.4 0 2.5 2.3 5 9.8 3.6 10.9 3.6 11.2 2.1 11.2 -0.5 0 -1.5 -1.3 -2 -3 -1 -2.7 -1.5 -3 -5.4 -3 -4 0 -4.4 0.2 -5 3 -0.4 1.7 -1.3 3 -2 3 -1 0 -1.2 -0.7 -0.5 -2.7z m11 -6.3 c0 -0.5 -0.8 -2.9 -1.7 -5.2 l-1.7 -4.2 -1.2 3.5 c-2.1 5.7 -1.8 6.9 1.6 6.9 1.7 0 3 -0.4 3 -1z"/>
  <path d="M416 381.5 c0 -8.7 0.3 -10.5 1.5 -10.5 1.2 0 1.5 1.7 1.5 9.5 l0 9.5 4.5 0 c2.5 0 4.5 0.5 4.5 1 0 0.6 -2.7 1 -6 1 l-6 0 0 -10.5z"/>
  <path d="M95 304.5 l0 -48.5 8 0 8 0 0.2 24.2 0.3 24.3 17.2 -21.2 c9.5 -11.7 18.2 -22.6 19.4 -24.3 2.3 -3 2.3 -3 12.2 -3 5.6 0 9.7 0.4 9.5 0.9 -0.2 0.5 -9 11.6 -19.6 24.6 -17.3 21.2 -19.2 23.8 -17.9 25.3 1.5 1.9 35.1 41.6 37.5 44.5 1.4 1.6 0.9 1.7 -9.1 1.7 l-10.5 0 -14.8 -18.4 c-8.2 -10.1 -15.3 -18.2 -15.9 -17.9 -0.5 0.2 -2.7 2.5 -4.7 4.9 l-3.8 4.5 0 13.5 0 13.4 -8 0 -8 0 0 -48.5z"/>
  <path d="M175.8 348.3 c1.1 -2.6 8.2 -21 15.9 -40.8 7.7 -19.8 15.5 -39.9 17.3 -44.8 1.9 -4.8 3.7 -8.4 4.1 -8 0.3 0.5 5.9 14.3 12.2 30.8 6.4 16.5 14.8 38.1 18.6 48 3.9 9.9 7.1 18.3 7.1 18.8 0 0.4 -3.8 0.7 -8.4 0.7 l-8.3 0 -1.9 -5.2 -1.9 -5.3 -17.6 -0.3 -17.6 -0.2 -1.9 5.2 -1.9 5.3 -8.8 0.3 -8.7 0.3 1.8 -4.8z m48.2 -21.6 c0 -0.7 -2 -6.9 -4.4 -13.7 -5.9 -16.6 -6.6 -18.4 -7.1 -17.8 -0.6 0.6 -11.5 31 -11.5 32 0 0.5 5.2 0.8 11.5 0.8 8.7 0 11.5 -0.3 11.5 -1.3z"/>
  <path d="M263 304.6 l0 -48.6 19.3 0 c20.5 0 26.3 0.9 33.7 5.3 7.5 4.4 11.4 11.5 11.4 21.2 0 5.6 -0.5 7.9 -2.4 11.5 -2.6 4.6 -9.1 9.9 -12.5 10 -1.1 0.1 0.2 0.9 2.9 2 9.8 3.9 14.3 11.2 13.4 22.3 -0.9 10.2 -5.6 16.7 -15.8 21.5 -5.3 2.5 -6.3 2.6 -27.7 3 l-22.3 0.4 0 -48.6z m41.2 31.4 c4.8 -1.4 8.8 -6.1 8.8 -10.5 0 -9.5 -5.1 -12.6 -22.2 -13.3 l-11.8 -0.5 0 12.7 0 12.6 10.8 0 c5.9 0 12.4 -0.5 14.4 -1z m-0.5 -41.1 c9.7 -3.6 10.8 -15.5 2 -20.9 -2.7 -1.7 -5.1 -2 -14.9 -2 l-11.8 0 0 12 0 12 10.9 0 c6 0 12.2 -0.5 13.8 -1.1z"/>
  <path d="M348 304.5 l0 -48.5 8 0 8 0 0 48.5 0 48.5 -8 0 -8 0 0 -48.5z"/>
  <path d="M386 304.4 l0 -48.5 21.3 0.3 c20.8 0.3 21.3 0.3 27.2 3.1 11.9 5.6 16 11.9 16 24.7 0 6.8 -0.5 9.3 -2.2 12.6 -2.4 4.6 -7 8.8 -12 11.2 -1.8 0.9 -3.3 2.1 -3.3 2.7 0 0.6 4.3 10.3 9.5 21.5 5.2 11.2 9.5 20.5 9.5 20.7 0 0.2 -3.9 0.3 -8.7 0.3 l-8.8 0 -9.4 -20.5 -9.3 -20.5 -6.9 0 -6.9 0 0 20.5 0 20.5 -8 0 -8 0 0 -48.6z m43.1 -10.7 c8.6 -5.8 7.6 -16.3 -1.8 -20.2 -2.4 -1 -7.1 -1.5 -14.4 -1.5 l-10.9 0 0 12 0 12 11.9 0 c10.6 0 12.1 -0.2 15.2 -2.3z"/>
  <path d="M460.8 348.3 c18.3 -47.8 36.7 -94.1 37.2 -93.6 0.4 0.5 5.3 12.7 11 27.3 5.7 14.6 14.1 36 18.7 47.6 4.5 11.6 8.3 21.6 8.3 22.2 0 0.8 -2.6 1.2 -8.4 1.2 l-8.3 0 -2 -5.2 -2 -5.3 -17.4 -0.3 -17.5 -0.2 -1.8 5.5 -1.9 5.5 -8.9 0 -8.8 0 1.8 -4.7z m48.7 -22 c-0.4 -1 -2.9 -8.1 -5.7 -15.8 -2.7 -7.7 -5.3 -14.4 -5.7 -14.8 -0.4 -0.4 -3.2 6.1 -6.1 14.5 -2.9 8.4 -5.5 15.9 -5.7 16.6 -0.4 0.9 2.3 1.2 11.7 1.2 11.2 0 12.2 -0.1 11.5 -1.7z"/>
  <path d="M301.3 231.5 c-13.6 -2.5 -23.2 -6.5 -34.2 -14.3 l-6.5 -4.6 9.5 -2.6 c17.8 -5 33.6 -13.1 48.3 -24.9 13 -10.5 30.3 -29.9 39 -43.9 6.2 -9.9 2.7 0.6 -5.6 17.2 -7.5 14.9 -17.6 29.8 -29.9 43.9 l-4.1 4.7 5.9 0 c10.6 0 26.5 -5.2 34.3 -11.2 5.3 -4.1 14.1 -13.3 17 -17.8 1.7 -2.6 4.4 -8.5 6.2 -13.1 2.7 -7.3 3.1 -9.8 3.1 -18.9 0.1 -5.8 -0.5 -13 -1.2 -16 -1.7 -6.9 -7 -18.4 -10.8 -23.2 l-2.9 -3.6 -1.8 6.6 c-2.8 10.4 -6.9 19.4 -14 30 -16.9 25.4 -42.7 46.9 -76.2 63.5 -17.4 8.7 -16.9 8.6 -21.1 4.5 -6.7 -6.4 -19.5 -26.9 -17.9 -28.6 0.3 -0.3 0.1 -1.1 -0.5 -1.9 -0.9 -1 -0.4 -1.3 3 -1.3 2.2 0 4.1 0.5 4.1 1 0 0.6 -0.7 1 -1.6 1 -0.8 0 -1.2 0.5 -0.9 1 0.3 0.6 4.1 1 8.3 1 30.5 0 64.6 -15.7 91.1 -41.8 6 -5.9 12.6 -13.4 14.8 -16.7 4.7 -7 10.3 -17.8 10.3 -19.9 0 -1.8 -13.2 -11.8 -19.2 -14.5 -8.6 -3.8 -17.4 -5.3 -29.3 -4.9 -9.5 0.4 -12 0.8 -18.8 3.6 -10 4.1 -18.2 9.7 -24.5 16.8 -8.2 9.1 -14.7 23.3 -15.4 33.3 -0.3 4.5 -0.3 4.5 3.7 5.7 9.5 2.9 31.5 0.9 48.5 -4.5 3.5 -1.1 6.6 -1.8 6.8 -1.6 0.7 0.7 -7.7 5.5 -15.6 9 -14.2 6.2 -24.4 8.6 -36.7 8.6 -12.3 0 -22.2 -1.3 -29.2 -3.9 l-4.7 -1.7 0.3 -5 c1 -18.4 11.2 -39.9 25.2 -53.1 16.2 -15.1 35.4 -22.7 57.9 -22.7 17.5 0 31.4 4.1 45.7 13.6 16.5 11 29 28 34.5 47.3 3.3 11.5 3.3 33.7 0 44.1 -3.6 11.5 -7.5 19.3 -14.1 28 -18.8 25 -50.2 37.4 -80.8 31.8z"/>
  <path d="M235.5 152.5 l-3 -1.3 2.6 -0.1 c1.5 -0.1 3.2 0.6 3.9 1.4 1.5 1.8 0.5 1.8 -3.5 0z"/>
 </g>
 <g fill="#26a9df">
  <path d="M240.5 179 c-1.2 -0.4 -2.6 -1.4 -3.3 -2.3 -1.4 -1.7 -4.2 -16.3 -4.2 -21.9 0 -3.3 0.3 -3.8 2.3 -3.8 1.2 0 3.7 1.3 5.5 3 1.8 1.6 4.5 3.2 6 3.5 4.7 1 30.5 0.6 36.2 -0.6 12 -2.4 27 -8.6 40.3 -16.8 3.4 -2.1 7 -3.8 7.9 -3.8 1.6 0 1.6 0.2 0 2.1 -3.1 3.8 -11.6 11.1 -17.7 15.2 -18.2 12.3 -36.5 19.4 -57.5 22.4 -13.2 1.9 -14.1 2.1 -13.5 3.1 0.7 1 0.7 1 -2 -0.1z"/>
 </g>
</svg>